<svg width="17" height="17" viewBox="0 0 17 17" fill="none" xmlns="http://www.w3.org/2000/svg">
<g clip-path="url(#clip0_91_4437)">
<path fill-rule="evenodd" clip-rule="evenodd" d="M13.3075 14.8422L7.98755 8.19245L13.3075 1.54272C13.366 1.46962 13.4028 1.38146 13.4134 1.28839C13.4241 1.19533 13.4083 1.10115 13.3677 1.01669C13.3272 0.932243 13.2636 0.860958 13.1844 0.811053C13.1051 0.761148 13.0133 0.734653 12.9197 0.734619H9.45989C9.31079 0.734653 9.16362 0.768213 9.02924 0.832817C8.89487 0.897421 8.77675 0.991415 8.68361 1.10784L3.26426 7.88154C3.1938 7.96985 3.15542 8.07948 3.15542 8.19245C3.15542 8.30542 3.1938 8.41505 3.26426 8.50336L8.68361 15.2771C8.77675 15.3935 8.89487 15.4875 9.02924 15.5521C9.16362 15.6167 9.31079 15.6502 9.45989 15.6503H12.9197C13.0133 15.6502 13.1051 15.6238 13.1844 15.5738C13.2636 15.5239 13.3272 15.4527 13.3677 15.3682C13.4083 15.2838 13.4241 15.1896 13.4134 15.0965C13.4028 15.0034 13.366 14.9153 13.3075 14.8422V14.8422Z" stroke="white" stroke-width="0.63295" stroke-linecap="round" stroke-linejoin="round"/>
</g>
<defs>
<clipPath id="clip0_91_4437">
<rect width="15.91" height="15.91" fill="white" transform="matrix(-1 0 0 1 16.7323 0.237305)"/>
</clipPath>
</defs>
</svg>
