<svg width="17" height="17" viewBox="0 0 17 17" fill="none" xmlns="http://www.w3.org/2000/svg">
<g clip-path="url(#clip0_91_4435)">
<path fill-rule="evenodd" clip-rule="evenodd" d="M3.69274 14.8422L9.01266 8.19245L3.69274 1.54272C3.63416 1.46962 3.59743 1.38146 3.58677 1.28839C3.5761 1.19533 3.59195 1.10115 3.63248 1.01669C3.67301 0.932243 3.73657 0.860958 3.81584 0.811053C3.89511 0.761148 3.98687 0.734653 4.08055 0.734619H7.54032C7.68941 0.734653 7.83659 0.768213 7.97096 0.832817C8.10533 0.897421 8.22346 0.991415 8.31659 1.10784L13.736 7.88154C13.8064 7.96985 13.8448 8.07948 13.8448 8.19245C13.8448 8.30542 13.8064 8.41505 13.736 8.50336L8.31659 15.2771C8.22346 15.3935 8.10533 15.4875 7.97096 15.5521C7.83659 15.6167 7.68941 15.6502 7.54032 15.6503H4.08055C3.98687 15.6502 3.89511 15.6238 3.81584 15.5738C3.73657 15.5239 3.67301 15.4527 3.63248 15.3682C3.59195 15.2838 3.5761 15.1896 3.58677 15.0965C3.59743 15.0034 3.63416 14.9153 3.69274 14.8422V14.8422Z" stroke="white" stroke-width="0.63295" stroke-linecap="round" stroke-linejoin="round"/>
</g>
<defs>
<clipPath id="clip0_91_4435">
<rect width="15.91" height="15.91" fill="white" transform="translate(0.267914 0.237305)"/>
</clipPath>
</defs>
</svg>
