<svg width="23" height="22" viewBox="0 0 23 22" fill="none" xmlns="http://www.w3.org/2000/svg">
<g clip-path="url(#clip0_91_3116)">
<path d="M16.1547 17.0912H6.74665C6.00438 17.0912 5.40265 17.6929 5.40265 18.4352V19.7792C5.40265 20.5215 6.00438 21.1232 6.74665 21.1232H16.1547C16.897 21.1232 17.4987 20.5215 17.4987 19.7792V18.4352C17.4987 17.6929 16.897 17.0912 16.1547 17.0912Z" stroke="white" stroke-width="0.896003" stroke-linecap="round" stroke-linejoin="round"/>
<path d="M8.09057 0.963135H2.28716C2.04406 0.963135 1.81091 1.05971 1.63901 1.2316C1.46712 1.4035 1.37054 1.63665 1.37054 1.87975C1.37054 4.55314 2.43254 7.11703 4.32292 9.00741C6.21329 10.8978 8.77719 11.9598 11.4506 11.9598C14.124 11.9598 16.6879 10.8978 18.5782 9.00741C20.4686 7.11703 21.5306 4.55314 21.5306 1.87975C21.5306 1.63665 21.434 1.4035 21.2621 1.2316C21.0902 1.05971 20.8571 0.963135 20.614 0.963135H14.8106" stroke="white" stroke-width="0.896003" stroke-linecap="round" stroke-linejoin="round"/>
<path d="M9.55307 11.7816L7.99133 17.0913H14.7114L13.2993 11.7906" stroke="white" stroke-width="0.896003" stroke-linecap="round" stroke-linejoin="round"/>
<path d="M11.9883 1.25448L13.1065 3.45685H15.0123C15.1171 3.45475 15.22 3.48418 15.3078 3.54131C15.3955 3.59845 15.4641 3.68065 15.5046 3.77725C15.5451 3.87385 15.5556 3.98038 15.5347 4.08303C15.5139 4.18567 15.4627 4.27968 15.3878 4.35285L13.6352 6.07228L14.6047 8.29885C14.6473 8.40089 14.6568 8.51375 14.6318 8.62148C14.6069 8.72922 14.5487 8.82638 14.4655 8.89926C14.3823 8.97214 14.2784 9.01705 14.1683 9.02765C14.0582 9.03824 13.9476 9.01399 13.852 8.95831L11.509 7.6385L9.16592 8.95831C9.07038 9.01365 8.95989 9.03763 8.85001 9.02688C8.74012 9.01613 8.63638 8.97118 8.55338 8.89837C8.47038 8.82556 8.41231 8.72855 8.38733 8.62101C8.36236 8.51346 8.37175 8.40079 8.41417 8.29885L9.38365 6.07228L7.63376 4.35017C7.55876 4.27694 7.50753 4.18285 7.48672 4.08012C7.46591 3.97739 7.47648 3.87077 7.51707 3.77413C7.55766 3.67749 7.62638 3.5953 7.71431 3.53823C7.80223 3.48117 7.90529 3.45188 8.01008 3.45416H9.91498L11.0341 1.25179C11.0797 1.16454 11.1484 1.0915 11.2327 1.04062C11.3169 0.989742 11.4136 0.962982 11.512 0.963259C11.6105 0.963536 11.707 0.99084 11.7909 1.04219C11.8749 1.09355 11.9432 1.16698 11.9883 1.25448V1.25448Z" stroke="white" stroke-width="0.896003" stroke-linecap="round" stroke-linejoin="round"/>
</g>
<defs>
<clipPath id="clip0_91_3116">
<rect width="21.5041" height="21.5041" fill="white" transform="translate(0.698486 0.291138)"/>
</clipPath>
</defs>
</svg>
