<svg width="22" height="22" viewBox="0 0 22 22" fill="none" xmlns="http://www.w3.org/2000/svg">
<g clip-path="url(#clip0_91_3100)">
<path d="M15.0258 11.7153H8.30574C7.56346 11.7153 6.96173 12.3171 6.96173 13.0593V17.0914C6.96173 17.8336 7.56346 18.4354 8.30574 18.4354H15.0258C15.768 18.4354 16.3698 17.8336 16.3698 17.0914V13.0593C16.3698 12.3171 15.768 11.7153 15.0258 11.7153Z" stroke="white" stroke-width="0.896003" stroke-linecap="round" stroke-linejoin="round"/>
<path d="M16.3698 13.7311L19.0578 12.3871V17.7631L16.3698 16.4191V13.7311Z" stroke="white" stroke-width="0.896003" stroke-linecap="round" stroke-linejoin="round"/>
<path d="M8.97772 21.1232L11.6657 18.4352L14.3537 21.1232" stroke="white" stroke-width="0.896003" stroke-linecap="round" stroke-linejoin="round"/>
<path d="M6.96176 9.02728C9.18858 9.02728 10.9938 7.22209 10.9938 4.99527C10.9938 2.76845 9.18858 0.963257 6.96176 0.963257C4.73494 0.963257 2.92975 2.76845 2.92975 4.99527C2.92975 7.22209 4.73494 9.02728 6.96176 9.02728Z" stroke="white" stroke-width="0.896003" stroke-linecap="round" stroke-linejoin="round"/>
<path d="M16.3698 9.02726C17.8543 9.02726 19.0578 7.8238 19.0578 6.33925C19.0578 4.85471 17.8543 3.65125 16.3698 3.65125C14.8852 3.65125 13.6818 4.85471 13.6818 6.33925C13.6818 7.8238 14.8852 9.02726 16.3698 9.02726Z" stroke="white" stroke-width="0.896003" stroke-linecap="round" stroke-linejoin="round"/>
</g>
<defs>
<clipPath id="clip0_91_3100">
<rect width="21.5041" height="21.5041" fill="white" transform="translate(0.24176 0.291138)"/>
</clipPath>
</defs>
</svg>
