<svg width="13" height="13" viewBox="0 0 13 13" fill="none" xmlns="http://www.w3.org/2000/svg">
<path d="M3.35177 10.9969C3.61545 11.0157 3.87576 11.0673 4.12659 11.1508C6.10407 11.7946 6.21159 11.8636 6.74122 11.8833L9.19453 11.9743C9.94018 12.0058 10.6708 11.7581 11.2436 11.2798C11.8165 10.8015 12.1905 10.1268 12.2926 9.38748L12.5371 6.8448C12.5834 6.32577 12.4477 5.8068 12.1533 5.37686C11.8589 4.94692 11.4241 4.63279 10.9234 4.48832C10.3888 4.33338 9.63431 4.30537 9.66232 3.55089L9.72538 1.85206C9.73645 1.5539 9.62862 1.26355 9.42561 1.04489C9.2226 0.826234 8.94105 0.697175 8.64288 0.686107C8.34472 0.675039 8.05437 0.782869 7.83571 0.985876C7.61705 1.18888 7.488 1.47044 7.47693 1.7686C7.47507 1.81857 7.63885 6.30273 3.56166 6.15138L3.35177 10.9969Z" stroke="black" stroke-width="0.5" stroke-linecap="round" stroke-linejoin="round"/>
<path d="M3.57459 5.00049L1.32614 4.91703L1.07575 11.6624L3.3242 11.7458L3.57459 5.00049Z" stroke="black" stroke-width="0.5" stroke-linecap="round" stroke-linejoin="round"/>
</svg>
