<svg width="13" height="13" viewBox="0 0 13 13" fill="none" xmlns="http://www.w3.org/2000/svg">
<path d="M0.951973 0.675186L1.16667 11.9231" stroke="black" stroke-width="0.5" stroke-linecap="round" stroke-linejoin="round"/>
<path d="M0.964638 1.4239L6.96355 1.30939C7.16242 1.30559 7.35466 1.38096 7.49797 1.5189C7.64128 1.65684 7.72393 1.84606 7.72772 2.04494L7.84223 8.04385L1.09346 8.17267" stroke="black" stroke-width="0.5" stroke-linecap="round" stroke-linejoin="round"/>
<path d="M5.63556 10.3347L7.84002 8.04445" stroke="black" stroke-width="0.5" stroke-linecap="round" stroke-linejoin="round"/>
<path d="M7.75627 3.54442L11.8805 3.4657C11.9529 3.46422 12.0242 3.48375 12.0858 3.52192C12.1474 3.56009 12.1965 3.61527 12.2274 3.6808C12.2583 3.74632 12.2695 3.81939 12.2598 3.89116C12.25 3.96293 12.2196 4.03034 12.1724 4.08524L10.2157 6.373C10.0974 6.51376 10.0341 6.69265 10.0376 6.87649C10.0412 7.06033 10.1112 7.23667 10.2348 7.37282L12.2774 9.58424C12.3267 9.6373 12.3596 9.7035 12.3721 9.77485C12.3846 9.84619 12.3761 9.91963 12.3478 9.98629C12.3194 10.0529 12.2724 10.11 12.2123 10.1505C12.1523 10.1909 12.0818 10.2132 12.0093 10.2145L5.01062 10.3481C4.81174 10.3519 4.6195 10.2765 4.47619 10.1386C4.33288 10.0006 4.25024 9.81139 4.24644 9.61251L4.21781 8.11278" stroke="black" stroke-width="0.5" stroke-linecap="round" stroke-linejoin="round"/>
</svg>
