<svg width="19" height="19" viewBox="0 0 19 19" fill="none" xmlns="http://www.w3.org/2000/svg">
<g clip-path="url(#clip0_91_3089)">
<path d="M15.7823 3.50728C15.6869 3.44363 15.5914 3.44363 15.4959 3.47545C14.7004 3.8255 13.873 3.57092 13.3957 2.93448C13.1729 2.64808 13.0456 2.26622 13.0456 1.91618C13.0456 1.82071 13.0138 1.75707 12.9502 1.69343C12.8865 1.62978 12.8229 1.59796 12.7274 1.59796H9.48158C9.29065 1.59796 9.16336 1.72525 9.16336 1.91618V13.2128V13.2764C9.09972 13.8492 8.65421 14.2629 8.08142 14.2629C7.4768 14.2629 6.96765 13.7537 6.96765 13.1491C6.96765 12.5763 7.38134 12.1308 7.95413 12.0672C8.11324 12.0354 8.24053 11.9081 8.24053 11.749V8.05763C8.24053 7.8667 8.11324 7.73941 7.92231 7.73941H7.85866C4.93105 7.8667 2.67188 10.2215 2.67188 13.1491C2.67188 16.1404 5.09034 18.5589 8.0816 18.5589C10.8819 18.5589 13.2368 16.395 13.4597 13.6266C13.4915 13.5948 13.4915 13.5312 13.4915 13.4994V7.35755C14.1916 7.51666 14.9235 7.5803 15.6872 7.45301C15.8463 7.42119 15.9418 7.2939 15.9418 7.13479V3.76167C15.9418 3.6662 15.8782 3.57074 15.7827 3.50709L15.7823 3.50728ZM15.305 6.8804C14.5731 6.94404 13.9048 6.8804 13.2366 6.65765C13.1411 6.62582 13.0456 6.65765 12.9502 6.68947C12.8547 6.75311 12.8229 6.84858 12.8229 6.94404V13.3721C12.8229 13.4039 12.8229 13.4357 12.7911 13.4675C12.632 15.9496 10.5317 17.9226 8.04941 17.9226C5.4082 17.9226 3.27613 15.7905 3.27613 13.1493C3.27613 10.6672 5.1218 8.6306 7.5719 8.40767V11.4944C6.84 11.7171 6.29903 12.3854 6.29903 13.1491C6.29903 14.1038 7.09457 14.8993 8.04923 14.8993C8.90842 14.8993 9.64033 14.2629 9.76762 13.4355C9.79944 13.4037 9.79944 13.3401 9.79944 13.3082V2.23422H12.4407C12.5043 2.6479 12.6634 2.99794 12.8862 3.31616C13.4271 4.04807 14.3818 4.42993 15.3046 4.20718L15.305 6.8804Z" fill="white"/>
</g>
<defs>
<clipPath id="clip0_91_3089">
<rect width="18.0916" height="18.0916" fill="white" transform="translate(0.410217 0.844177)"/>
</clipPath>
</defs>
</svg>
