<svg width="17" height="17" viewBox="0 0 17 17" fill="none" xmlns="http://www.w3.org/2000/svg">
<path d="M15.0484 8.34991H2.04974V15.3492C2.04974 15.6144 2.15509 15.8687 2.34261 16.0562C2.53012 16.2437 2.78445 16.3491 3.04964 16.3491H14.0485C14.3137 16.3491 14.568 16.2437 14.7555 16.0562C14.943 15.8687 15.0484 15.6144 15.0484 15.3492V8.34991Z" stroke="black" stroke-width="1.00046" stroke-linecap="round" stroke-linejoin="round"/>
<path d="M15.0481 5.34976H2.04953C1.78434 5.34976 1.53002 5.45511 1.3425 5.64262C1.15498 5.83014 1.04964 6.08447 1.04964 6.34966V7.8495C1.04964 7.98209 1.10231 8.10925 1.19607 8.20301C1.28983 8.29677 1.41699 8.34944 1.54958 8.34944H15.5481C15.6807 8.34944 15.8079 8.29677 15.9016 8.20301C15.9954 8.10925 16.048 7.98209 16.048 7.8495V6.34966C16.048 6.08447 15.9427 5.83014 15.7552 5.64262C15.5677 5.45511 15.3133 5.34976 15.0481 5.34976Z" stroke="black" stroke-width="1.00046" stroke-linecap="round" stroke-linejoin="round"/>
<path d="M8.04913 5.34934C5.84003 5.34934 3.54961 3.55886 3.54961 1.34976" stroke="black" stroke-width="1.00046" stroke-linecap="round" stroke-linejoin="round"/>
<path d="M3.54961 1.34976C5.7587 1.34976 8.04913 3.14024 8.04913 5.34934" stroke="black" stroke-width="1.00046" stroke-linecap="round" stroke-linejoin="round"/>
<path d="M9.04973 5.34934C11.2588 5.34934 13.5492 3.55886 13.5492 1.34976" stroke="black" stroke-width="1.00046" stroke-linecap="round" stroke-linejoin="round"/>
<path d="M13.5492 1.34976C11.3402 1.34976 9.04973 3.14024 9.04973 5.34934" stroke="black" stroke-width="1.00046" stroke-linecap="round" stroke-linejoin="round"/>
<path d="M10.0493 5.34976H7.04961V16.3486H10.0493V5.34976Z" stroke="black" stroke-width="1.00046" stroke-linecap="round" stroke-linejoin="round"/>
</svg>
