<svg width="13" height="13" viewBox="0 0 13 13" fill="none" xmlns="http://www.w3.org/2000/svg">
<path d="M9.52211 1.07904H3.40698C2.10863 1.07904 1.05611 2.13156 1.05611 3.4299V9.54504C1.05611 10.8434 2.10863 11.8959 3.40698 11.8959H9.52211C10.8205 11.8959 11.873 10.8434 11.873 9.54504V3.4299C11.873 2.13156 10.8205 1.07904 9.52211 1.07904Z" stroke="white" stroke-width="0.600275" stroke-linecap="round" stroke-linejoin="round"/>
<path d="M6.465 8.17054C7.39429 8.17054 8.14762 7.41721 8.14762 6.48792C8.14762 5.55863 7.39429 4.8053 6.465 4.8053C5.53571 4.8053 4.78238 5.55863 4.78238 6.48792C4.78238 7.41721 5.53571 8.17054 6.465 8.17054Z" stroke="white" stroke-width="0.600275" stroke-linecap="round" stroke-linejoin="round"/>
<path d="M8.69462 4.38619C8.62777 4.38619 8.5736 4.33201 8.5736 4.26518C8.5736 4.19835 8.62777 4.14417 8.69462 4.14417" stroke="white" stroke-width="0.600275"/>
<path d="M8.694 4.38626C8.76085 4.38626 8.81501 4.33207 8.81501 4.26524C8.81501 4.19841 8.76085 4.14423 8.694 4.14423" stroke="white" stroke-width="0.600275"/>
</svg>
