<svg width="13" height="13" viewBox="0 0 13 13" fill="none" xmlns="http://www.w3.org/2000/svg">
<path d="M12.1626 2.90398L11.1126 2.45398L11.6626 1.25398L10.3826 1.67898C9.97489 1.29894 9.43991 1.08495 8.88258 1.07898C8.28625 1.0803 7.71472 1.31778 7.29305 1.73945C6.87138 2.16112 6.6339 2.73265 6.63258 3.32898V3.82898C4.86258 4.19398 3.31758 3.22898 1.88258 1.57898C1.63258 2.91231 1.88258 3.91231 2.63258 4.57898L0.987583 4.32898C1.05114 4.85858 1.29875 5.349 1.68717 5.71457C2.07559 6.08014 2.58011 6.29761 3.11258 6.32898L1.73758 6.82898C2.23758 7.82898 3.14758 7.98398 4.36258 8.07898C3.36949 8.75632 2.18937 9.10599 0.987583 9.07898C7.36758 11.914 11.1126 7.74898 11.1126 4.07898V3.66398L12.1626 2.90398Z" stroke="white" stroke-width="0.600275" stroke-linecap="round" stroke-linejoin="round"/>
</svg>
