<svg width="23" height="22" viewBox="0 0 23 22" fill="none" xmlns="http://www.w3.org/2000/svg">
<g clip-path="url(#clip0_91_3108)">
<path d="M7.67685 7.68323H5.66084C5.30439 7.68323 4.96253 7.82483 4.71048 8.07688C4.45843 8.32893 4.31683 8.67078 4.31683 9.02723V14.4033C4.31683 14.7597 4.45843 15.1016 4.71048 15.3536C4.96253 15.6057 5.30439 15.7473 5.66084 15.7473H17.7569C18.1133 15.7473 18.4552 15.6057 18.7072 15.3536C18.9593 15.1016 19.1009 14.7597 19.1009 14.4033V9.02723C19.1009 8.67078 18.9593 8.32893 18.7072 8.07688C18.4552 7.82483 18.1133 7.68323 17.7569 7.68323H15.7409" stroke="white" stroke-width="0.896003" stroke-linecap="round" stroke-linejoin="round"/>
<path d="M19.0999 21.1231H4.31763C4.10088 21.1224 3.88751 21.0693 3.69572 20.9683C3.50393 20.8673 3.3394 20.7215 3.21618 20.5431C3.09296 20.3648 3.0147 20.1594 2.98806 19.9442C2.96143 19.7291 2.98721 19.5108 3.06322 19.3078L3.91711 16.6198C4.01284 16.3641 4.18413 16.1437 4.40822 15.9878C4.6323 15.8319 4.89854 15.7479 5.17152 15.7471H18.0919C18.3649 15.7479 18.6311 15.8319 18.8552 15.9878C19.0793 16.1437 19.2506 16.3641 19.3463 16.6198L20.3543 19.3078C20.4303 19.5108 20.4561 19.7291 20.4295 19.9442C20.4028 20.1594 20.3245 20.3648 20.2013 20.5431C20.0781 20.7215 19.9136 20.8673 19.7218 20.9683C19.53 21.0693 19.3166 21.1224 19.0999 21.1231Z" stroke="white" stroke-width="0.896003" stroke-linecap="round" stroke-linejoin="round"/>
<path d="M10.3658 18.4352H13.0531" stroke="white" stroke-width="0.896003" stroke-linecap="round" stroke-linejoin="round"/>
<path d="M11.7097 11.7153V0.963257" stroke="white" stroke-width="0.896003" stroke-linecap="round" stroke-linejoin="round"/>
<path d="M9.0217 3.65127L11.7097 0.963257L14.3977 3.65127" stroke="white" stroke-width="0.896003" stroke-linecap="round" stroke-linejoin="round"/>
</g>
<defs>
<clipPath id="clip0_91_3108">
<rect width="21.5041" height="21.5041" fill="white" transform="translate(0.956787 0.291138)"/>
</clipPath>
</defs>
</svg>
