<svg width="81" height="41" viewBox="0 0 81 41" fill="none" xmlns="http://www.w3.org/2000/svg">
<g clip-path="url(#clip0_91_4446)">
<path d="M73.1307 3.45578C73.2076 3.45578 73.2846 3.53262 73.2846 3.45578C73.2076 3.45578 73.2076 3.45578 73.1307 3.45578Z" fill="#3F3F3F"/>
<path d="M77.0144 13.4929C77.0906 13.0366 77.3191 13.0366 77.4714 12.9606C77.4714 11.3637 77.4714 10.071 77.4714 9.08249C77.4714 9.00645 77.4714 8.85436 77.4714 8.77832C77.3952 7.2575 77.6999 5.66063 76.2528 4.59606C76.1767 4.52002 76.1005 4.44398 76.0244 4.36793C75.3389 3.7596 74.425 3.3794 73.435 3.3794C73.435 3.3794 73.3588 3.3794 73.2826 3.3794C73.3588 4.13981 72.9018 3.53148 72.7495 3.45544C72.7495 3.3794 72.7495 3.3794 72.7495 3.3794C71.6833 3.3794 69.4747 3.3794 66.4283 3.3794C66.3522 3.3794 66.276 3.3794 66.1999 3.3794C65.8952 3.3794 65.5906 3.3794 65.286 3.3794C65.1336 3.3794 65.0575 3.3794 64.9052 3.45544C63.8389 4.36793 63.2297 4.06377 62.2396 3.45544C62.0873 3.45544 62.0111 3.45544 61.935 3.45544C61.5542 3.45544 61.2495 3.45544 60.8687 3.45544C60.7926 3.45544 60.7164 3.45544 60.6403 3.45544C55.4615 3.45544 50.5873 3.45544 45.2562 3.45544C45.18 3.45544 45.1039 3.45544 44.9515 3.45544C39.8489 3.45544 34.6701 3.45544 29.7959 3.45544C29.7198 3.45544 29.6436 3.45544 29.4913 3.45544C29.1105 3.45544 28.7297 3.45544 28.3489 3.45544C28.1966 3.45544 28.1204 3.45544 27.9681 3.45544C26.5211 3.15127 25.8357 3.45544 24.9217 4.44398C24.6171 4.13981 24.6171 3.45544 23.8555 3.45544C23.7032 3.45544 23.627 3.45544 23.4747 3.45544C20.733 3.45544 18.0674 3.45544 15.2496 3.45544C15.0973 3.45544 15.0211 3.45544 14.8688 3.45544C10.6039 3.45544 8.01447 3.45544 8.01447 3.45544C7.10057 3.45544 6.26282 3.7596 5.57739 4.21585C5.57739 4.36793 5.65355 4.52002 5.72971 4.82418C5.42507 5.0523 5.12044 4.97626 4.8158 4.90022C4.20653 5.58459 3.90189 6.49709 3.90189 7.48562C3.90189 7.48562 3.90189 9.91894 3.90189 13.2648C3.90189 13.3408 3.90189 13.4168 3.90189 13.4929C3.97805 14.3293 4.05421 15.1658 4.05421 16.0022C4.13037 15.9262 4.13037 15.9262 4.13037 16.0022C4.13037 16.1543 4.05421 16.2304 4.05421 16.3064C4.13037 18.3595 4.05421 20.5647 3.90189 22.5418C3.90189 22.6178 3.90189 22.6939 3.90189 22.8459C3.90189 26.648 3.90189 30.1459 3.90189 31.9709C3.90189 32.0469 3.90189 32.123 3.90189 32.2751C3.82573 32.8834 3.5211 33.7959 4.05421 34.4042C4.05421 34.5563 4.13037 34.6323 4.13037 34.7084C4.73964 36.2292 6.18666 37.3698 7.93831 37.3698C7.93831 37.3698 11.2893 37.3698 16.4681 37.3698C16.5443 37.3698 16.6204 37.3698 16.6966 37.3698C17.0774 37.3698 17.3059 37.3698 17.6105 37.3698C17.6867 37.3698 17.7628 37.3698 17.839 37.3698C19.0575 37.674 20.0476 38.0542 21.4946 37.3698C21.5708 37.3698 21.6469 37.3698 21.7231 37.3698C21.7992 37.3698 21.8754 37.3698 22.0277 37.3698C22.1039 37.3698 22.18 37.3698 22.3323 37.3698C22.8655 37.3698 23.4747 37.3698 24.0078 37.3698C24.084 37.3698 24.1602 37.3698 24.3125 37.3698C24.3886 37.3698 24.541 37.3698 24.6171 37.3698C26.3688 37.3698 28.1966 37.3698 30.1006 37.3698C30.1767 37.3698 30.2529 37.3698 30.329 37.3698C31.1668 37.3698 32.1568 37.3698 33.0707 37.3698C33.1469 37.3698 33.2992 37.3698 33.3754 37.3698C33.6039 37.3698 33.7562 37.3698 33.9847 37.3698C34.0608 37.3698 34.2131 37.3698 34.2893 37.3698C34.4416 37.3698 34.7462 37.3698 34.8986 37.3698C34.9747 37.3698 35.127 37.3698 35.2032 37.3698C35.4317 37.3698 35.584 37.3698 35.8125 37.3698C35.8886 37.3698 36.0409 37.3698 36.1171 37.3698C36.4217 37.3698 37.1072 37.3698 37.3356 37.3698C37.4118 37.3698 37.5641 37.3698 37.6403 37.3698C38.3257 37.3698 39.0111 37.3698 39.6966 37.3698C39.7727 37.3698 39.8489 37.3698 40.0012 37.3698C41.6767 37.3698 42.9714 37.3698 44.4184 37.3698C44.4946 37.3698 44.5707 37.3698 44.7231 37.3698C44.7992 37.3698 44.8754 37.3698 45.0277 37.3698C45.2562 37.3698 45.2562 37.3698 45.5608 37.3698C45.637 37.3698 45.7131 37.3698 45.8654 37.3698C45.9416 37.3698 46.0178 37.3698 46.1701 37.3698C46.3224 37.3698 46.627 37.3698 46.7032 37.3698C46.7793 37.3698 46.8555 37.3698 47.0078 37.3698C47.084 37.3698 47.1601 37.3698 47.3125 37.3698C47.3886 37.3698 47.4648 37.3698 47.6171 37.3698C47.9979 37.3698 47.9979 37.3698 48.1502 37.3698C48.2264 37.3698 48.3025 37.3698 48.4548 37.3698C48.7595 37.3698 48.988 37.3698 49.2926 37.3698C49.3688 37.3698 49.4449 37.3698 49.5972 37.3698C49.6734 37.3698 50.0542 37.3698 50.1303 37.3698C50.2065 37.3698 50.2827 37.3698 50.435 37.3698C50.7396 37.3698 50.9681 37.3698 51.1966 37.3698C51.2727 37.3698 51.3489 37.3698 51.425 37.3698C51.5774 37.3698 51.5774 37.3698 51.9582 37.3698C52.0343 37.3698 52.1105 37.3698 52.1866 37.3698C52.7959 37.3698 53.4052 37.3698 54.0144 37.3698C54.0906 37.3698 54.1668 37.3698 54.2429 37.3698C54.4714 37.3698 54.4714 37.3698 54.776 37.3698C54.8522 37.3698 54.9283 37.3698 55.0045 37.3698C55.0807 37.3698 55.1568 37.3698 55.233 37.3698C55.3091 37.3698 55.3853 37.3698 55.4615 37.3698C55.7661 37.3698 55.7661 37.3698 56.223 37.3698C56.2992 37.3698 56.3754 37.3698 56.4515 37.3698C56.5277 37.3698 56.6038 37.3698 56.68 37.3698C57.2893 37.3698 57.9747 37.3698 58.584 37.3698C58.6601 37.3698 58.7363 37.3698 58.8125 37.3698H58.8886C58.9648 37.3698 58.9648 37.3698 59.0409 37.3698C59.1171 37.3698 59.1171 37.3698 59.1171 37.3698C64.9052 37.3698 69.5508 37.3698 71.9118 37.3698C72.0641 37.3698 72.2164 37.3698 72.2926 37.3698C74.0442 37.3698 76.0244 37.674 76.7859 35.925C76.8621 35.849 76.9383 35.773 77.0144 35.6209C77.4714 34.9365 77.776 34.1761 77.776 33.2636C77.776 33.2636 77.776 21.021 77.776 13.4168C77.6999 13.3408 77.6237 13.2648 77.4714 13.1127C77.4714 13.2648 77.6237 13.645 77.5475 13.5689C77.1667 13.8731 76.7098 13.5689 77.0144 13.4929ZM7.48136 4.13981C7.32904 5.12835 7.25288 4.6721 7.17673 4.6721C7.32904 4.29189 7.4052 4.29189 7.48136 4.13981ZM6.71977 4.74814C6.79593 4.59606 6.87209 4.21585 6.87209 4.29189C7.02441 4.21585 7.17673 4.6721 6.94825 4.59606C6.56745 5.28043 6.41514 4.52002 5.95818 4.90022C6.33898 3.91169 6.71977 3.91169 6.71977 4.74814ZM4.28269 15.8502C4.43501 15.1658 4.58732 15.3939 4.73964 15.3179C4.58732 15.8502 4.43501 15.622 4.28269 15.8502ZM76.1767 33.3396C76.1767 34.8605 74.9581 36.0011 73.5111 36.0011H8.01447C6.4913 36.0011 5.34891 34.7844 5.34891 33.3396C5.34891 33.3396 5.34891 27.7886 5.34891 21.8574C5.34891 21.7814 5.34891 21.6293 5.34891 21.5532C5.12044 19.6522 5.12044 17.447 5.19659 15.4699C5.04428 15.622 5.04428 14.8616 4.8158 15.3939C5.04428 14.6335 5.12044 14.9377 5.19659 15.1658C5.19659 14.9377 5.19659 14.7095 5.19659 14.5575C5.19659 14.4814 5.19659 14.4054 5.19659 14.3293C5.19659 13.5689 5.19659 12.8085 5.19659 12.1241C5.12044 12.8845 4.89196 12.6564 4.73964 12.7325C4.89196 12.2002 5.04428 12.3523 5.19659 11.9721C5.19659 9.38665 5.19659 7.63771 5.19659 7.63771C5.19659 6.11688 6.41514 4.97626 7.86216 4.97626C7.86216 4.97626 10.9085 4.97626 15.7065 4.97626C15.7827 4.97626 15.8588 4.97626 15.935 4.97626C20.2761 4.90022 24.7694 4.90022 28.882 4.97626C28.9582 4.97626 29.0343 4.97626 29.1866 4.97626C34.0608 4.97626 39.3158 4.97626 44.4184 4.97626C44.4946 4.97626 44.6469 4.97626 44.7231 4.97626C49.8257 4.90022 55.0045 4.90022 60.031 4.97626C60.1072 4.97626 60.1833 4.97626 60.2595 4.97626C60.7164 4.97626 61.1734 4.97626 61.6303 4.97626C61.7065 4.97626 61.7826 4.97626 61.8588 4.97626C63.1535 4.90022 64.1436 4.90022 65.286 4.97626C65.3621 4.97626 65.4383 4.97626 65.5906 4.97626C70.3886 4.97626 73.435 4.97626 73.435 4.97626C74.9581 4.97626 76.1005 6.19292 76.1005 7.63771V33.3396H76.1767ZM76.4052 4.74814C76.6336 5.28043 76.7859 5.66063 76.6336 5.66063C76.5575 5.50855 76.4052 5.20439 76.2528 4.82418L76.4052 4.74814ZM76.7098 14.2533C76.329 13.3408 76.6336 13.645 76.7859 13.5689C76.8621 13.9491 76.7098 14.0252 76.7098 14.2533Z" fill="#3F3F3F"/>
<path d="M0.703516 11.2874C0.779667 11.3634 0.779667 11.5155 0.855817 11.5155C1.00812 11.5915 1.23657 10.8312 1.38887 10.7552C1.46502 10.6791 1.38887 11.2114 1.38887 11.2874C1.46502 11.3634 1.69348 10.6791 1.76963 10.6791C1.84578 10.6791 1.76963 11.1353 1.84578 11.2114C1.92193 10.7552 1.99808 10.2229 2.07423 9.76674C2.07423 9.69071 2.07423 9.53864 2.07423 9.46261C2.07423 9.23451 2.07423 9.08244 2.07423 8.85434C2.07423 8.93038 2.07423 8.93038 1.99808 9.00641C1.92193 8.93038 1.92193 8.70228 1.92193 8.47418C1.84578 8.55021 1.61733 9.23451 1.69348 8.62624C1.84578 8.24608 1.92193 8.09401 1.99808 8.09401C1.99808 8.01798 1.99808 8.01798 1.99808 8.01798C1.99808 7.25765 2.15038 6.57335 2.37883 5.88905C2.30268 5.96508 2.15038 5.88905 2.07423 5.81302C1.84578 6.64938 1.38887 8.39814 1.61733 8.39814C1.46502 8.93038 1.46502 8.62624 1.38887 8.55021C1.31272 8.93038 1.31272 9.15847 1.31272 9.23451C1.00812 9.23451 0.931968 9.31054 0.703516 9.15847C0.703516 9.15847 0.703516 9.23451 0.627365 9.31054C0.627365 9.38657 0.627365 9.53864 0.627365 9.69071C0.627365 9.76674 0.627365 9.91881 0.627365 9.99484C0.703516 10.451 0.703516 10.9072 0.703516 11.2874Z" fill="#3F3F3F"/>
<path d="M8.24303 1.85896C8.24303 1.85896 11.5179 1.85896 16.6205 1.85896C16.6967 1.85896 16.7728 1.85896 16.849 1.85896C17.0775 1.85896 17.7629 1.85896 17.9152 1.85896C17.9914 1.85896 18.0675 1.85896 18.1437 1.85896C20.1238 1.85896 22.4086 1.85896 24.7695 1.85896C24.8457 1.85896 24.9218 1.85896 24.998 1.85896C26.1404 1.85896 27.1304 1.85896 28.349 1.85896C28.4251 1.85896 28.5013 1.85896 28.6536 1.85896C34.2894 1.85896 40.4582 1.85896 46.3225 1.85896C46.3986 1.85896 46.4748 1.85896 46.6271 1.85896C47.2364 1.85896 47.8457 1.85896 48.3788 1.85896C48.4549 1.85896 48.6072 1.85896 48.6834 1.85896C48.9119 1.85896 49.1404 1.935 49.445 1.935C49.5973 1.935 49.6735 1.935 49.8258 1.935C51.1966 2.16312 52.8721 1.5548 54.0907 1.63084C54.1668 1.63084 54.243 1.63084 54.3192 1.63084C54.7 1.63084 55.0807 1.70688 55.4615 1.85896C55.5377 1.85896 55.69 1.85896 55.7662 1.85896C56.6039 1.85896 57.5178 1.85896 58.2794 1.85896C58.3556 1.85896 58.4317 1.85896 58.5079 1.85896C58.9649 1.85896 58.9649 1.85896 59.1933 1.85896C59.2695 1.85896 59.3456 1.85896 59.4218 1.85896C60.1834 1.85896 60.8688 1.85896 61.5543 1.85896C61.7827 1.85896 61.8589 1.85896 62.0112 1.85896C62.3158 1.85896 62.6205 1.85896 62.9251 1.85896C63.0013 1.85896 63.1536 1.85896 63.2297 1.85896C64.0675 1.85896 65.3622 1.85896 66.5046 1.85896C66.5807 1.85896 66.6569 1.85896 66.8092 1.85896C66.8854 1.85896 66.9615 1.85896 67.0377 1.85896C67.1139 1.85896 67.19 1.85896 67.2662 1.85896C68.3324 1.85896 69.6271 1.85896 70.6172 1.85896C70.6933 1.85896 70.7695 1.85896 70.8456 1.85896C72.2927 1.85896 73.1304 1.85896 73.1304 1.85896C73.2827 1.85896 73.3589 1.85896 73.5112 1.85896C73.5112 1.63084 73.5874 1.63084 73.6635 1.78292C73.6635 1.85896 73.6635 1.85896 73.6635 1.935C73.7397 1.935 73.7397 1.935 73.8158 1.935C73.8158 1.32667 73.892 0.870425 74.0443 0.56626C73.7397 0.490219 73.435 0.490219 73.1304 0.490219C73.1304 0.490219 72.6735 0.490219 71.9119 0.490219C71.8357 0.490219 71.6834 0.490219 71.6072 0.490219C69.7033 0.56626 68.0278 0.56626 66.1238 0.490219C66.0476 0.490219 65.9715 0.490219 65.8953 0.490219C65.8191 0.490219 65.743 0.490219 65.6668 0.490219C65.1337 0.56626 64.7529 0.56626 64.2198 0.56626C64.1437 0.56626 63.9913 0.56626 63.839 0.56626C63.0013 0.56626 62.2397 0.56626 61.6304 0.490219C61.5543 0.490219 61.4781 0.490219 61.4019 0.490219C60.4119 0.490219 59.3456 0.490219 58.2794 0.490219C58.2033 0.490219 58.1271 0.490219 58.0509 0.490219C56.6039 0.490219 55.3092 0.56626 53.9384 0.56626C53.786 0.56626 53.7099 0.56626 53.5576 0.56626C52.339 0.870425 51.7298 1.25063 50.3589 0.56626C50.2066 0.56626 50.1304 0.56626 49.9781 0.56626C49.5212 0.56626 48.988 0.56626 48.5311 0.56626C48.4549 0.56626 48.3788 0.56626 48.2264 0.56626C41.4483 0.56626 34.1371 0.56626 27.7397 0.56626C27.5112 0.56626 27.3589 0.56626 27.2066 0.56626C26.8258 0.642301 26.445 0.642301 26.1404 0.56626C25.9881 0.56626 25.7596 0.56626 25.6073 0.56626C25.1503 0.56626 24.6934 0.56626 24.3126 0.56626C24.2364 0.56626 24.1602 0.56626 24.0841 0.56626C23.3225 0.642301 22.9417 0.642301 22.3324 0.56626C22.2563 0.56626 22.1801 0.56626 22.104 0.56626C21.5708 0.56626 20.9616 0.56626 20.4285 0.56626C20.3523 0.56626 20.2 0.56626 20.1238 0.56626C17.9914 0.946466 15.7066 -0.0420696 13.5742 0.56626C13.498 0.56626 13.4218 0.56626 13.3457 0.56626C10.147 0.56626 8.16687 0.56626 8.16687 0.56626C6.18674 0.56626 4.35893 1.32667 2.98807 2.61937C2.98807 3.07562 2.98807 3.60791 2.91191 4.21624C3.06423 4.06415 3.29271 4.1402 3.52118 4.06415C4.66357 2.69541 6.33906 1.85896 8.24303 1.85896Z" fill="#3F3F3F"/>
<path d="M0.703516 13.9494C0.703516 14.7098 0.627365 15.4701 0.627365 16.2304C0.627365 16.2304 0.627365 16.2304 0.703516 16.2304C0.855817 16.0023 0.779667 15.6221 0.931968 15.318C1.16042 15.318 1.46502 15.1659 1.69348 15.0139C1.69348 14.4056 1.69348 13.7974 1.69348 13.2651C1.31272 13.6453 0.931968 13.9494 0.703516 13.9494Z" fill="#3F3F3F"/>
<path d="M75.7199 2.391C75.796 2.46703 75.9483 2.46703 76.0245 2.54306C76.6337 2.8472 77.1667 3.22736 77.5475 3.75959C77.6998 3.37943 77.8521 2.92323 77.9282 2.54306C77.5475 2.1629 77.1667 1.78273 76.786 1.4786C76.6337 1.7067 76.5575 1.85877 76.3291 1.9348C76.1006 1.4786 75.9483 1.32653 75.796 1.0224C75.4914 0.870336 75.1868 0.794302 74.8061 0.718269C74.5776 1.4786 73.8161 0.718269 73.7399 1.9348C74.5776 2.01083 75.1868 2.1629 75.7199 2.391Z" fill="#3F3F3F"/>
<path d="M1.84585 17.2195C1.84585 17.2956 1.84585 17.2956 1.84585 17.2195C1.84585 17.0673 1.84585 16.9152 1.84585 16.763C1.84585 16.8391 1.84585 16.9152 1.76965 16.9912C1.84585 16.9152 1.84585 17.1434 1.84585 17.2195Z" fill="#3F3F3F"/>
<path d="M79.3757 12.8849C79.3757 14.3297 79.3757 16.0026 79.3757 17.6755C79.3757 17.7515 79.3757 17.8276 79.3757 17.9036C79.4518 20.565 79.4518 23.1504 79.3757 25.8879C79.3757 25.964 79.3757 26.04 79.3757 26.1161C79.3757 29.9181 79.3757 32.7316 79.3757 32.7316C79.3757 34.4806 78.6902 36.0014 77.5478 37.142C77.4717 37.2181 77.3194 37.2941 77.2432 37.3701C74.5015 38.967 71.9121 39.3472 69.0181 38.967C68.9419 38.967 68.7896 38.967 68.7134 38.967C66.4286 38.967 63.3823 38.967 59.8028 38.967H59.7267C59.6505 38.967 59.6505 38.967 59.5743 38.967C59.5743 38.967 59.5743 38.967 59.4982 38.967C52.7962 39.0431 46.3227 39.0431 39.4684 39.0431C39.3922 39.0431 39.3161 39.0431 39.1638 39.0431C38.9353 39.0431 38.783 39.0431 38.5545 39.0431C38.4783 39.0431 38.4022 39.0431 38.326 39.0431C36.7267 39.0431 35.1273 39.0431 33.6042 39.0431C33.4518 39.0431 33.3757 39.0431 33.2234 39.0431C32.4618 39.0431 31.7002 39.0431 30.8624 39.0431C31.0148 39.1191 31.0148 39.1951 30.8624 39.1951C30.4816 39.1191 30.4816 39.1191 30.634 39.0431C27.5115 39.0431 24.3128 39.0431 21.1141 39.0431C21.0379 39.0431 20.9618 39.0431 20.8856 39.0431C19.4386 38.1306 17.8393 40.0316 16.6207 39.0431C16.4684 39.0431 16.3161 39.0431 16.2399 39.0431C16.0115 39.0431 15.7068 39.0431 15.4783 39.0431C15.4022 39.0431 15.326 39.0431 15.1737 39.0431C10.985 39.0431 8.31941 39.0431 8.31941 39.0431C5.95849 39.0431 3.9022 37.6743 2.83597 35.7733C2.75981 35.6972 2.68366 35.5452 2.68366 35.4691C2.15054 34.2525 2.15054 33.2639 2.07438 31.9712C2.07438 31.8952 2.07438 31.8191 2.07438 31.7431C2.07438 29.3858 2.07438 23.6827 2.07438 18.3599V18.2838C2.07438 18.3599 1.99823 18.5119 1.99823 18.5119C1.84591 18.5119 1.92207 17.6755 1.76975 17.6755C1.61743 17.5994 1.38895 18.4359 1.16048 18.664C0.932001 18.9682 0.855842 18.588 0.627365 18.8161C0.627365 25.1275 0.627365 31.8952 0.627365 32.6556C0.627365 32.7316 0.627365 32.7316 0.627365 32.7316C0.855842 33.7962 0.855842 34.7847 1.23664 35.6972C1.3128 35.8493 1.3128 36.0014 1.38895 36.0774C2.6075 38.6629 5.27306 40.4118 8.24325 40.4118C8.24325 40.4118 11.2896 40.4118 16.0876 40.4118C16.1638 40.4118 16.2399 40.4118 16.3161 40.4118C17.3823 40.0316 18.677 40.0316 19.8194 40.3358C19.9717 40.3358 20.0479 40.3358 20.2002 40.3358C21.0379 40.3358 21.7995 40.3358 22.485 40.3358C22.6373 40.3358 22.7134 40.3358 22.8658 40.3358C23.0181 40.3358 23.0942 40.3358 23.2466 40.3358C24.7697 40.3358 26.4452 40.3358 28.0446 40.3358C28.1969 40.3358 28.273 40.3358 28.4254 40.3358C29.2631 40.3358 30.3293 40.5639 31.1671 40.4878C31.2432 40.1076 30.4816 39.8035 30.8624 39.3472C31.3956 39.6514 31.5479 40.0316 31.7764 40.4118C31.8525 40.4118 32.0048 40.4118 32.081 40.4118C32.5379 40.4118 33.0711 40.4118 33.528 40.4118C33.6042 40.4118 33.6042 40.3358 33.6042 40.3358C33.8326 40.3358 33.985 40.4118 33.985 40.4118C35.3558 40.4118 36.6505 40.4118 38.0214 40.4118C38.0975 40.4118 38.2499 40.4118 38.326 40.4118C39.3922 40.4118 40.4585 40.4118 41.5247 40.4118C41.6008 40.4118 41.677 40.4118 41.7532 40.4118C44.7234 40.3358 47.3128 40.3358 50.1306 40.4118C50.2068 40.4118 50.283 40.4118 50.3591 40.4118C50.4353 40.4118 50.5114 40.4118 50.5876 40.4118C51.1207 40.3358 51.4253 40.3358 51.9585 40.4118C52.1108 40.3358 52.2631 40.2597 52.4154 40.1837C52.5677 40.2597 52.6439 40.3358 52.6439 40.4118C52.7962 40.4118 52.9485 40.4118 53.1008 40.4118C53.177 40.4118 53.2532 40.4118 53.3293 40.4118C55.3856 40.3358 56.9849 40.3358 58.9651 40.4118C59.0412 40.4118 59.1174 40.4118 59.1936 40.4118C59.3459 40.4118 59.5743 40.4118 59.7267 40.4118C59.5743 40.4118 59.422 40.4118 59.4982 40.3358C59.7267 40.3358 60.0313 40.3358 60.4121 40.2597V40.3358C60.1836 40.3358 60.0313 40.3358 59.879 40.3358C60.4883 40.3358 61.0214 40.3358 61.6306 40.3358C61.7068 40.3358 61.783 40.3358 61.8591 40.3358C62.9253 40.4118 63.9916 40.4118 65.0578 40.4118C65.1339 40.4118 65.2101 40.4118 65.2863 40.4118C63.6108 40.1076 65.5909 39.8035 63.6869 39.4233C65.1339 39.6514 65.4386 39.9556 65.7432 40.2597C65.8194 40.3358 66.5048 40.1837 66.6571 40.2597C66.6571 40.2597 66.6571 40.3358 66.581 40.3358C68.7134 40.2597 70.8459 40.1076 73.0545 40.3358C77.2432 40.3358 80.6704 36.9139 80.6704 32.7316C80.6704 32.7316 80.6704 29.9181 80.6704 26.1161C80.6704 26.04 80.6704 25.964 80.6704 25.8879C80.6704 25.6598 80.6704 25.4317 80.6704 25.2036C80.5942 25.2036 80.5942 25.2796 80.518 25.3556C80.518 25.0515 80.518 24.8234 80.6704 24.7473C80.5942 22.39 80.6704 20.1088 80.6704 17.5234C80.6704 17.4474 80.6704 17.3713 80.6704 17.2192C80.6704 15.1661 80.6704 13.2651 80.6704 11.7443C80.3657 12.3526 79.9849 12.8849 79.3757 12.8849ZM17.1538 39.6514C16.6969 39.6514 16.5446 39.5753 16.6969 39.5753C17.3062 39.4993 17.3823 39.5753 17.1538 39.6514ZM27.5876 39.2712C27.2068 39.2712 27.0545 39.1951 26.6737 39.1951C26.7499 39.1951 28.1969 39.1951 27.5876 39.2712ZM29.4154 39.2712C28.6538 39.3472 28.73 39.1951 29.4154 39.1951V39.2712ZM33.7565 40.2597C33.0711 40.2597 33.2995 40.0316 33.3757 39.9556C33.9088 40.0316 33.9088 40.1076 33.7565 40.2597ZM39.3922 39.0431C40.3823 39.1191 38.9353 39.2712 39.3922 39.0431V39.0431ZM40.23 40.2597C39.3161 40.2597 40.1538 40.1076 39.0876 40.1076C38.326 40.1076 38.9353 40.1837 37.8691 40.1837C37.7929 40.1076 38.326 40.1076 38.0975 40.1076C38.4783 40.1076 38.4783 40.1076 38.783 40.1076C38.9353 40.0316 38.6306 39.9556 38.6306 39.8795C38.783 39.8795 39.0114 39.8795 39.3161 39.8795C38.0214 39.8035 40.0777 39.6514 39.4684 39.4233C40.8393 39.5753 39.8492 40.0316 40.23 40.2597ZM52.0346 39.1951C51.6538 39.1951 51.5777 39.1191 51.3492 39.0431C52.4154 39.0431 51.9585 39.1191 52.0346 39.1951ZM52.1869 39.4993C52.0346 39.4993 51.6538 39.4993 51.73 39.4993C51.5777 39.4233 52.0346 39.1951 51.9585 39.4233C52.72 39.6514 51.9585 39.8035 52.4916 40.0316C51.4253 39.9556 51.3492 39.6514 52.1869 39.4993ZM59.7267 39.0431C60.4121 39.0431 60.0313 39.2712 59.9551 39.1191H59.7267C59.1174 39.1191 59.5743 39.0431 59.7267 39.0431ZM59.422 39.2712C60.3359 39.1951 60.1836 39.3472 60.3359 39.4233C59.6505 39.4233 59.879 39.3472 59.422 39.2712ZM62.9253 39.0431C63.5346 39.0431 63.3061 39.1951 63.5346 39.2712C62.8492 39.2712 63.0777 39.1191 62.9253 39.0431ZM64.22 39.4233C63.8392 39.4233 63.7631 39.3472 63.7631 39.2712C64.3724 39.3472 64.4485 39.4233 64.22 39.4233ZM79.8326 25.8879C79.6803 24.8994 80.518 26.1161 79.8326 25.8879V25.8879Z" fill="#3F3F3F"/>
<path d="M79.3756 11.2873C79.3756 11.3633 79.3756 11.4393 79.3756 11.5154C79.3756 11.6674 79.3756 11.7435 79.3756 11.8955C79.7564 11.7435 80.061 11.5914 80.2894 11.2112C80.2894 10.9831 80.1371 10.3749 79.9848 9.84263C80.2894 9.9947 80.5179 9.91867 80.7463 9.84263C80.7463 9.15834 80.7463 8.47404 80.8225 7.71371C80.8225 7.56164 80.8225 7.48561 80.8225 7.33354V7.25751C80.6702 7.56164 80.061 7.02941 80.061 7.71371C79.6041 6.64924 80.4417 7.40957 80.2133 6.49718C80.2894 6.57321 80.4417 6.72528 80.594 6.87734C80.6702 6.80131 80.5179 6.26908 80.6702 6.42114C80.5179 5.66081 80.2133 4.90048 79.8325 4.21618C79.8325 4.44428 79.8325 4.59635 79.8325 4.67238C79.7564 4.74842 79.6041 4.29222 79.4518 4.29222C79.3756 4.29222 79.5279 4.97652 79.4518 4.97652C79.3756 5.05255 79.1472 4.67238 79.071 4.59635C78.8426 4.52032 78.7664 4.82445 78.6903 5.20462C79.4518 7.02941 79.6041 9.3104 79.3756 11.2873Z" fill="#3F3F3F"/>
<path d="M72.0639 32.8833C72.5969 32.2752 71.9878 32.2751 71.5309 31.819C71.3786 31.667 71.2264 31.5149 71.2264 31.5149L70.1604 32.5792L71.2264 33.6436C71.2264 33.6436 71.4548 33.4155 71.7593 33.1114C71.8355 33.0354 71.9878 32.9594 72.0639 32.8833Z" fill="#3F3F3F"/>
<path d="M72.9017 30.2983C72.2164 29.9942 72.2164 30.6024 71.8357 30.9065C71.6834 31.0585 71.5311 31.2106 71.5311 31.2106C71.5311 31.2106 71.6834 31.3626 71.8357 31.5147C72.2164 31.6667 72.521 31.6667 72.521 32.2749C73.5869 31.5907 73.8915 30.9825 72.9017 30.2983Z" fill="#3F3F3F"/>
<path d="M72.6478 32.9544L71.6249 33.9757L72.6478 34.9969L73.6706 33.9756L72.6478 32.9544Z" fill="#3F3F3F"/>
<path d="M74.7296 32.2752C74.1966 31.591 73.5874 31.2869 73.0544 32.3512C72.9783 32.5033 72.9783 32.5033 72.9783 32.5033C73.2829 32.8834 73.2829 32.8834 73.5113 33.1114C73.5874 33.1875 73.6636 33.2635 73.7397 33.3395C73.892 33.4916 74.0443 33.6436 74.0443 33.6436L75.1103 32.5793C75.1103 32.5793 75.1103 32.5793 75.0341 32.5033C74.8818 32.4272 74.8057 32.3512 74.7296 32.2752Z" fill="#3F3F3F"/>
<path d="M70.9979 9.08235C71.5309 9.53849 71.6071 8.85428 72.0639 8.62621C71.9878 8.55019 71.8355 8.39814 71.6832 8.17007C71.6832 8.01803 71.7593 7.942 71.8355 7.942C71.7593 7.78996 71.6832 7.63791 71.5309 7.48586C71.3786 7.33382 71.2264 7.18177 71.2264 7.18177L70.1604 8.2461C70.1604 8.2461 70.3888 8.47417 70.6934 8.77826C70.8457 8.85428 70.9218 9.00633 70.9979 9.08235Z" fill="#3F3F3F"/>
<path d="M71.9119 7.18145C72.1403 7.48554 72.3687 7.56156 72.521 7.78963C72.521 7.71361 72.521 7.56156 72.4449 7.33349C72.5972 7.56156 72.6733 7.48554 72.7494 7.71361C72.7494 6.80133 73.2063 6.80133 73.587 6.80133C73.5108 6.72531 73.4347 6.64928 73.3586 6.57326C73.2063 6.42121 72.9779 6.19314 72.8256 6.0411C72.6733 5.88905 72.521 5.737 72.521 5.737L71.455 6.80133C71.455 6.80133 71.455 6.80133 71.5312 6.87735C71.7596 7.0294 71.8357 7.10542 71.9119 7.18145Z" fill="#3F3F3F"/>
<path d="M72.902 9.38684C72.8259 9.15877 72.7497 8.85468 72.5974 8.62661C71.9122 9.00673 71.6076 9.61492 72.1406 10.2231C72.2167 10.2991 72.2929 10.3751 72.369 10.4512C72.5213 10.6032 72.6736 10.7553 72.6736 10.7553C72.6736 10.7553 72.8259 10.6032 72.9781 10.4512C73.0543 10.3751 73.1304 10.2991 73.2066 10.2231C73.8918 9.69094 73.1304 9.38684 72.902 8.9307C72.8259 9.00673 72.8259 9.15877 72.902 9.38684Z" fill="#3F3F3F"/>
<path d="M74.5012 7.79003C74.425 7.71401 74.3489 7.63798 74.2728 7.56196C73.8921 7.33389 73.6636 7.40991 73.5875 7.63798C73.5875 7.79003 73.5875 7.94208 73.6636 8.17015C73.6636 8.24617 73.6636 8.32219 73.7398 8.39822C73.6636 8.32219 73.6636 8.17015 73.6636 8.17015C73.5875 8.24617 73.4352 8.17015 73.2829 8.24617C73.2829 8.24617 73.2068 8.32219 73.1306 8.32219C73.0545 8.39822 72.9784 8.47424 72.9022 8.55026C73.2829 8.77833 73.5875 9.3105 74.1205 9.23447C74.0443 9.08243 73.9682 8.93038 73.8921 8.62629C73.8921 8.55026 74.0443 8.85436 74.1966 9.23447C74.1966 9.23447 74.1966 9.23447 74.2728 9.23447C74.2728 9.15845 74.1966 8.93038 74.3489 9.08243V9.15845C74.425 9.08243 74.425 9.08243 74.5012 9.0064C74.7296 8.77833 75.0342 8.47424 75.0342 8.47424C75.0342 8.47424 74.8057 8.0181 74.5012 7.79003Z" fill="#3F3F3F"/>
<path d="M7.39294 31.621L6.3701 32.6422L7.39294 33.6635L8.41578 32.6422L7.39294 31.621Z" fill="#3F3F3F"/>
<path d="M8.76297 30.2518L7.74013 31.2731L8.76297 32.2944L9.7858 31.2731L8.76297 30.2518Z" fill="#3F3F3F"/>
<path d="M8.47145 33.1879C8.31916 33.3399 8.09074 33.568 7.93846 33.7201C7.78618 33.8721 7.6339 34.0241 7.6339 34.0241L8.69987 35.0885C8.69987 35.0885 8.69987 35.0885 8.77601 35.0124C8.85215 34.9364 8.92829 34.8604 9.00443 34.7844C9.23286 34.6323 9.61356 34.2522 9.91813 33.9481C9.309 33.8721 9.309 32.9598 8.47145 33.1879Z" fill="#3F3F3F"/>
<path d="M9.38554 32.3513C9.23326 32.5033 9.08098 32.6554 9.08098 32.6554C9.91853 33.6437 10.6038 33.6437 11.2129 32.6554C10.2992 31.9712 10.2992 31.287 9.38554 32.3513Z" fill="#3F3F3F"/>
<path d="M7.38206 7.29173L6.35922 8.31299L7.38206 9.33425L8.4049 8.31299L7.38206 7.29173Z" fill="#3F3F3F"/>
<path d="M8.75201 5.92217L7.72917 6.94343L8.75201 7.96469L9.77485 6.94343L8.75201 5.92217Z" fill="#3F3F3F"/>
<path d="M9.08077 8.85454C8.92849 8.7025 8.77621 8.55045 8.77621 8.55045L7.71024 9.61478L8.77621 10.6791C8.77621 10.6791 9.00463 10.451 9.3092 10.1469C9.38534 10.0709 9.46148 9.99489 9.53762 9.91887C9.61376 9.61478 9.61376 9.61478 9.91832 9.61478C9.99446 8.93057 9.00463 9.61478 9.08077 8.85454Z" fill="#3F3F3F"/>
<path d="M9.38554 8.01812C9.23326 8.17016 9.08098 8.32221 9.08098 8.32221C9.08098 8.32221 9.08098 8.32221 9.15712 8.39823C9.23326 8.47426 9.3094 8.55028 9.38554 8.6263C9.91853 9.69063 10.6038 9.00642 11.2129 8.39823C10.6038 7.638 10.2992 7.02981 9.38554 8.01812Z" fill="#3F3F3F"/>
<path d="M31.9284 30.4503H29.4915C29.4154 30.4503 29.4154 30.4503 29.3392 30.4503V30.5264V30.6784C29.3392 30.7545 29.3392 30.7545 29.3392 30.7545C29.3392 30.7545 29.4154 30.7545 29.4915 30.7545H30.4815C30.4815 30.7545 30.4815 31.1346 30.4815 31.6669C30.4815 31.7429 30.4815 31.8189 30.4815 31.895C30.4053 32.5793 30.4053 32.8834 30.4815 33.5677C30.4815 33.6437 30.5576 33.7198 30.6338 33.7198C32.3091 32.9594 30.3292 31.971 30.9384 31.2107C30.9384 31.0586 30.9384 30.9826 30.9384 30.9065C30.9384 30.8305 30.9384 30.7545 30.9384 30.7545H31.9284C32.0045 30.7545 32.0045 30.7545 32.0807 30.7545V30.6784V30.6024C32.0807 30.5264 32.0807 30.5264 32.0807 30.5264C32.0045 30.4503 32.0045 30.4503 31.9284 30.4503Z" fill="#3F3F3F"/>
<path d="M36.1169 30.4503H35.9646C35.8885 30.4503 35.8885 30.4503 35.8123 30.4503V30.5264V32.5793C35.8123 32.8834 35.7362 33.0355 35.5077 33.1875C35.3554 33.3396 35.0508 33.4156 34.7462 33.4156C34.4416 33.4156 34.137 33.3396 33.9847 33.1875C33.8324 33.0355 33.6801 32.8074 33.6801 32.5793V30.5264C33.6801 30.4503 33.6801 30.4503 33.6801 30.4503C33.6801 30.4503 33.604 30.4503 33.5278 30.4503H33.3755C33.2994 30.4503 33.2232 30.5264 33.2232 30.6024C33.2232 30.6024 33.2232 30.9826 33.2232 31.3627C33.2232 31.4388 33.2232 31.5148 33.2232 31.5908C32.7663 32.2751 33.0709 32.9594 33.6801 33.4917C33.7563 33.5677 33.9086 33.6437 33.9847 33.6437C34.2132 33.7198 34.5178 33.7958 34.8224 33.7958C35.127 33.7958 35.3554 33.7198 35.66 33.6437C35.8885 33.5677 36.0408 33.4156 36.1931 33.1875C36.3454 33.0355 36.4215 32.8074 36.4215 32.5032V30.5264C36.2692 30.4503 36.1931 30.4503 36.1169 30.4503Z" fill="#3F3F3F"/>
<path d="M40.0775 31.971C40.2298 31.8189 40.2298 31.5908 40.2298 31.3627C40.2298 31.0586 40.1536 30.7545 39.9252 30.6024C39.6967 30.4503 39.4683 30.3743 39.0875 30.3743H37.7168C37.6406 30.3743 37.5645 30.4503 37.5645 30.5263V33.5677C37.5645 33.6437 37.6406 33.7197 37.7168 33.7197H37.8691C37.9452 33.7197 37.9452 33.7197 38.0214 33.7197V33.6437V32.5032H39.0875L39.6967 33.7197C39.6967 33.7197 39.6967 33.7958 39.7729 33.7958H39.849H40.1536C40.2298 33.6437 40.2298 33.3396 39.9252 33.0354C39.849 32.9594 39.849 32.8073 39.7729 32.7313C39.6967 32.5792 39.6206 32.4272 39.6206 32.4272C39.7729 32.2751 40.0013 32.1991 40.0775 31.971ZM39.6206 31.8949C39.4683 31.971 39.316 32.047 39.0113 32.047H38.0975V30.7544H39.1636C39.3921 30.7544 39.6206 30.8305 39.6967 30.9065C39.849 30.9825 39.849 31.1346 39.849 31.3627C39.849 31.6668 39.7729 31.8189 39.6206 31.8949Z" fill="#3F3F3F"/>
<path d="M43.9614 33.4156C43.8853 33.3396 43.8091 33.2636 43.733 33.1875C43.4284 32.9594 42.8192 32.6553 42.8953 31.895C42.9715 31.8189 43.0476 31.7429 43.1238 31.6669C43.5807 31.2107 44.1137 30.6024 44.1137 30.6024V30.5264C44.1137 30.5264 44.1137 30.5264 44.1137 30.4503C44.1137 30.4503 44.1137 30.4503 44.0376 30.4503H43.733C43.6568 30.4503 43.6568 30.4503 43.6568 30.4503C43.6568 30.4503 43.6568 30.4503 43.5807 30.5264C43.5807 30.5264 43.1238 30.9826 42.743 31.4388C42.6669 31.5148 42.6669 31.5148 42.5907 31.5908C42.6669 32.047 42.0577 32.047 42.0577 32.047C41.3723 33.0355 43.3522 33.0355 43.5045 33.6437C43.5807 33.7198 43.5807 33.7198 43.5807 33.7198C43.5807 33.7198 43.5807 33.7198 43.6568 33.7958H43.733H44.1137C44.1137 33.7958 44.1137 33.7958 44.1899 33.7958C44.1899 33.7958 44.1899 33.7958 44.1899 33.7198C44.1899 33.7198 44.1899 33.7198 44.1899 33.6437C44.1899 33.6437 44.0376 33.4917 43.9614 33.4156Z" fill="#3F3F3F"/>
<path d="M41.9815 31.4388C41.9815 31.3627 41.9815 31.2867 41.9815 31.2107C41.9815 30.8305 41.9815 30.5264 41.9815 30.5264C41.9815 30.4503 41.9815 30.4503 41.9815 30.4503C41.9815 30.4503 41.9054 30.4503 41.8292 30.4503H41.6769C41.6008 30.4503 41.5246 30.5264 41.5246 30.6024C41.5246 30.6024 41.5246 30.7545 41.5246 30.9065C41.5246 30.9826 41.5246 31.1346 41.5246 31.2867C41.1439 31.971 41.7531 32.9594 41.7531 33.4917C41.7531 33.5677 41.7531 33.5677 41.8292 33.5677C41.7531 32.9594 41.7531 32.2751 41.9815 31.4388Z" fill="#3F3F3F"/>
<path d="M47.0078 33.4157C46.9317 33.4157 46.8555 33.4157 46.7794 33.4157C46.3225 33.4157 45.8656 33.4157 45.8656 33.4157V32.2752C45.8656 32.2752 46.2463 32.2752 46.5509 32.2752C46.7032 32.2752 46.7794 32.2752 46.8555 32.2752C47.2363 32.2752 47.2363 32.2752 47.2363 31.895C47.2363 31.895 47.084 31.895 46.8555 31.895C46.4748 31.895 45.7894 31.895 45.7894 31.895V30.7545H47.617C47.6932 30.7545 47.6932 30.7545 47.7693 30.7545V30.6785V30.6025C47.7693 30.5264 47.7693 30.5264 47.7693 30.5264C47.7693 30.5264 47.6932 30.5264 47.617 30.5264H45.5609C45.4848 30.5264 45.4086 30.6025 45.4086 30.6785V33.7198C45.4086 33.7958 45.4848 33.8719 45.5609 33.8719C45.5609 33.8719 46.094 33.8719 46.6271 33.8719C46.7794 33.8719 46.9317 33.8719 47.0078 33.8719C46.9317 33.4157 48.2262 34.0239 47.9216 33.4157C47.9216 33.2636 47.3124 33.2636 47.0078 33.4157Z" fill="#3F3F3F"/>
<path d="M51.8819 30.4503H51.5773C51.5012 30.4503 51.5012 30.4503 51.5012 30.4503C51.5012 30.4503 51.5012 30.4503 51.425 30.5263L50.3589 32.1991L49.2928 30.4503C49.2928 30.4503 49.2928 30.4503 49.2167 30.3743H49.1405H48.8359C48.7597 30.3743 48.7598 30.3743 48.7598 30.4503C48.7598 30.4503 48.7598 30.4503 48.7598 30.5263C48.7598 30.5263 48.8359 30.6784 48.9882 30.8305C49.5213 31.5908 50.5112 32.2751 50.0543 33.5677C50.0543 33.6437 50.1305 33.7197 50.2066 33.7197H50.3589C50.4351 33.7197 50.5112 33.6437 50.5112 33.5677V32.6553L51.8058 30.5263C51.8058 30.5263 51.8058 30.5264 51.8058 30.4503C51.9581 30.4503 51.8819 30.4503 51.8819 30.4503Z" fill="#3F3F3F"/>
<path d="M18.3722 22.2374C18.3722 22.3135 18.3722 22.3135 18.3722 22.3135C19.6668 20.5647 18.6768 18.968 19.0576 17.3713C17.763 18.968 18.753 20.6407 18.3722 22.2374Z" fill="#3F3F3F"/>
<path d="M21.1902 22.1613C21.4187 22.3134 21.7233 22.3894 22.104 22.4654C22.4086 22.5415 22.6371 22.5415 22.9417 22.5415C23.0178 22.5415 23.1701 22.5415 23.2463 22.5415C24.0078 22.5415 24.9978 22.5415 25.3024 21.8572C25.607 20.5646 24.3124 19.5762 23.0178 19.2721C22.9417 19.2721 22.8655 19.196 22.7894 19.196C22.6371 19.12 22.5609 19.12 22.4848 19.044C22.3325 18.9679 22.2563 18.8919 22.1802 18.7398C22.104 18.6638 22.0279 18.5117 22.0279 18.2836C22.0279 17.9795 22.104 17.7514 22.3325 17.5993C22.4848 17.5233 22.7132 17.4473 22.9417 17.3712C23.0178 17.3712 23.094 17.3712 23.2463 17.3712C23.6271 17.5233 24.2363 17.5233 24.9216 17.9035C24.9216 17.5993 24.9216 16.915 24.2363 16.9911C24.1601 16.9911 24.0078 16.915 23.9317 16.915C23.7032 16.9911 23.4747 16.9911 23.2463 16.9911C22.6371 16.9911 22.1802 17.1431 21.7994 17.3712C21.4187 17.5993 21.2664 17.9795 21.2664 18.4357C21.2664 18.7398 21.3425 18.9679 21.4948 19.196C21.6471 19.4241 21.8756 19.5762 22.104 19.6522C22.3325 19.7283 22.6371 19.8803 23.0178 20.0324C23.094 20.0324 23.2463 20.1084 23.3224 20.1084C23.3986 20.1084 23.4747 20.1845 23.5509 20.1845C24.2363 20.2605 24.9216 20.9448 24.617 21.553C24.3124 22.2373 23.6271 21.553 23.1701 22.0092C23.094 22.0092 23.0178 22.0092 22.9417 22.0092C22.7132 22.0092 22.4848 21.9332 22.2563 21.9332C21.9517 21.8572 21.7233 21.7811 21.4948 21.6291H21.4187C21.4187 21.6291 21.3425 21.6291 21.3425 21.7051L21.1141 22.0092V22.0853C21.1141 22.0853 21.1141 22.0853 21.1902 22.1613Z" fill="#3F3F3F"/>
<path d="M26.902 17.6754H28.5012C28.5012 17.6754 28.5012 17.9035 28.5012 18.2076C28.5012 18.2837 28.5012 18.4357 28.5012 18.5878C28.5012 18.968 28.5012 19.6523 28.5012 19.9564C28.5012 20.0324 28.5012 20.1085 28.5012 20.1845C28.5012 21.249 28.5012 22.2374 28.5012 22.2374C28.5012 22.3895 28.5774 22.4655 28.8058 22.4655C30.1765 21.249 29.4912 19.6523 29.3389 17.9035C29.3389 17.7514 29.3389 17.5994 29.3389 17.5994C29.3389 17.5994 29.4912 17.5994 29.7196 17.5994C29.9481 17.5994 30.2527 17.5994 30.4811 17.5994C30.7096 17.5994 30.8619 17.5994 30.8619 17.5994C30.938 17.5994 31.0142 17.5994 31.0903 17.5233C31.1665 17.5233 31.1665 17.4473 31.1665 17.3713V17.2192C31.1665 17.1432 31.1665 17.0671 31.0903 17.0671C31.0142 17.0671 31.0142 16.9911 30.8619 16.9911H26.9782C26.902 16.9911 26.8259 16.9911 26.7497 17.0671C26.7497 17.0671 26.6736 17.1432 26.6736 17.2192V17.3713C26.6736 17.4473 26.6736 17.5233 26.7497 17.5233C26.7497 17.6754 26.8259 17.6754 26.902 17.6754Z" fill="#3F3F3F"/>
<path d="M31.7763 22.4655H32.2333C32.3094 22.4655 32.3856 22.4655 32.3856 22.4655L32.4617 22.3894L33.0709 21.0969C33.0709 21.0969 33.4517 21.0969 33.9086 21.0969C33.9847 21.0969 34.0609 21.0969 34.2132 21.0969C35.66 20.3365 35.66 22.6175 36.9546 22.6175C36.2692 21.325 35.9646 20.3365 35.5077 18.8919C35.5077 18.8159 35.4316 18.7398 35.4316 18.6638C35.0508 17.9035 34.8224 17.2952 34.8224 17.2952C34.8224 17.2192 34.7462 17.2192 34.7462 17.1431C34.7462 17.1431 34.6701 17.1431 34.5939 17.1431H34.2893C34.2132 17.1431 34.2132 17.1431 34.137 17.1431C34.137 17.1431 34.0609 17.2192 34.0609 17.2952L31.7763 22.3134C31.7763 22.3894 31.7763 22.3894 31.7763 22.3894C31.624 22.4655 31.7002 22.4655 31.7763 22.4655ZM34.3655 18.0555C34.3655 18.0555 34.5939 18.5117 34.8224 19.044C34.8985 19.196 34.8985 19.2721 34.9747 19.3481C35.0508 19.9564 35.3554 20.2605 35.5077 20.7167C35.5077 20.7167 35.4316 20.7167 35.2793 20.7167C34.9747 20.6407 34.6701 20.6407 34.2132 20.5646C34.137 20.5646 34.0609 20.5646 33.9847 20.5646C33.604 20.5646 33.2994 20.5646 33.2994 20.5646L34.3655 18.0555Z" fill="#3F3F3F"/>
<path d="M39.2398 22.4655H39.4682C40.382 21.249 39.4682 19.9564 39.7728 18.5118C39.7728 18.2837 39.7728 18.2076 39.7728 18.2076C39.7728 18.2076 39.849 18.2837 40.0013 18.5118C40.7628 19.6523 41.4481 20.9448 42.6666 21.8572C42.7427 21.9333 42.8189 22.0093 42.895 22.0853C42.9712 22.2374 43.0473 22.3134 43.0473 22.3134C43.1235 22.3895 43.1235 22.3895 43.1996 22.3895C43.1996 22.3895 43.2758 22.3895 43.3519 22.3895H43.5804C43.6565 22.3895 43.7327 22.3895 43.8088 22.3134C43.885 22.2374 43.885 22.2374 43.885 22.1614V17.2192C43.885 17.1432 43.885 17.0671 43.8088 17.0671C43.7327 16.9911 43.7327 16.9911 43.5804 16.9911H43.2758C43.1235 16.9911 43.0473 17.0671 43.0473 17.2192V21.249C43.0473 21.249 42.895 21.0969 42.6666 20.7928C42.5904 20.7928 42.5904 20.7928 42.5143 20.7167C41.7527 19.6523 40.7628 19.044 40.4582 18.1316C40.382 18.0556 40.382 17.9795 40.3059 17.9035C40.0013 17.5233 39.7728 17.2952 39.7728 17.2952C39.6967 17.2192 39.6967 17.2192 39.6205 17.2192C39.6205 17.2192 39.5444 17.2192 39.4682 17.2192H39.2398C39.0875 17.2192 39.0113 17.2952 39.0113 17.4473V22.3895C39.0113 22.3895 39.0875 22.4655 39.2398 22.4655Z" fill="#3F3F3F"/>
<path d="M45.9418 17.2953V22.2374C45.9418 22.3895 46.018 22.4655 46.1703 22.4655C46.1703 22.4655 46.3226 22.4655 46.551 22.4655C46.7033 22.4655 46.7795 22.4655 46.9318 22.4655C48.2264 22.5416 49.1402 22.5416 50.2824 21.7052C50.3586 21.5531 50.4347 21.4771 50.4347 21.325C50.4347 21.173 50.5109 21.0969 50.5109 20.9449C50.5109 20.2606 50.2063 19.8804 49.5209 19.6523C49.7494 19.5763 49.9778 19.4242 50.1301 19.1961C50.2824 18.968 50.3586 18.7399 50.3586 18.5118C50.3586 18.0556 50.2063 17.7515 49.9017 17.4473C49.5971 17.2192 49.2163 17.0672 48.6071 17.0672H46.1703C46.018 17.0672 45.9418 17.1432 45.9418 17.2953ZM46.7033 17.6754H48.531C48.9117 17.6754 49.1402 17.7515 49.2925 17.9035C49.4448 18.0556 49.5209 18.2837 49.5209 18.5878C49.5209 18.892 49.4448 19.1201 49.2163 19.2721C49.064 19.4242 48.7594 19.5002 48.4548 19.5002H46.6272V17.6754H46.7033ZM46.7033 19.9564C46.7033 19.9564 46.7795 19.9564 46.8556 19.9564C46.9318 19.9564 47.0841 19.9564 47.1602 19.9564C47.9218 19.9564 48.9117 19.6523 49.5209 20.2606C49.8255 20.9449 49.5209 22.2374 48.6071 22.0093C48.6071 22.0093 48.6071 22.0093 48.531 22.0093C48.2264 21.9333 47.541 21.9333 47.2364 21.8573C47.1602 21.8573 47.0841 21.8573 46.9318 21.8573C46.7795 21.8573 46.6272 21.8573 46.6272 21.8573V19.9564H46.7033Z" fill="#3F3F3F"/>
<path d="M53.1769 22.0853C53.2531 22.1613 53.3292 22.1613 53.4054 22.2373C53.4815 22.3134 53.5577 22.3134 53.71 22.3894C53.7861 22.3894 53.8623 22.4654 53.9384 22.4654C54.7761 22.6175 55.766 22.6175 56.6037 22.3134C56.6799 22.2373 56.756 22.2373 56.8322 22.1613C56.9845 22.0092 57.1368 21.9332 57.2129 21.7811C57.4414 21.477 57.5175 21.0969 57.5175 20.7167V17.4473C57.5175 17.2952 57.4414 17.2192 57.2891 17.2192H56.9845C56.9083 17.2192 56.8322 17.2192 56.756 17.2952C56.6799 17.3712 56.6799 17.3712 56.6799 17.4473V20.7167C56.6799 20.9448 56.6037 21.0969 56.5276 21.325C56.4514 21.401 56.4514 21.477 56.3753 21.553C53.71 23.3018 53.0246 20.0324 53.1769 18.5878C53.1769 18.5117 53.1769 18.4357 53.1769 18.3597C53.1769 17.8274 53.1769 17.4473 53.1769 17.4473C53.1769 17.3712 53.1769 17.2952 53.1008 17.2952C53.0246 17.2192 53.0246 17.2192 52.8723 17.2192H52.6439C52.4916 17.2192 52.4154 17.2952 52.4154 17.4473V20.7167C52.4154 21.0969 52.4916 21.477 52.72 21.7811C52.8723 21.7811 53.0246 21.9332 53.1769 22.0853Z" fill="#3F3F3F"/>
<path d="M59.8788 22.4655C59.8788 22.4655 60.0311 22.4655 60.2596 22.4655C61.2495 21.9332 62.5441 22.5415 63.3818 22.4655C63.3818 22.4655 63.4579 22.3894 63.4579 22.3134V22.1613C63.4579 22.0853 63.4579 22.0093 63.3818 22.0093C63.3818 22.0093 63.3056 21.9332 63.1533 21.9332C60.2596 22.6175 60.5642 20.6407 60.3357 18.2836C60.3357 18.1316 60.3357 18.0555 60.3357 17.9035C60.3357 17.5993 60.3357 17.3712 60.3357 17.3712C60.3357 17.2952 60.3357 17.2192 60.2596 17.2192C60.1834 17.1431 60.1834 17.1431 60.0311 17.1431H59.8027C59.6504 17.1431 59.5742 17.2192 59.5742 17.3712C59.5742 17.3712 59.5742 18.1316 59.5742 19.044C59.5742 19.12 59.5742 19.196 59.5742 19.2721C59.5742 19.9564 59.5742 20.2605 59.5742 21.0208C59.5742 21.0969 59.5742 21.1729 59.5742 21.2489C59.5742 21.8572 59.5742 22.2374 59.5742 22.2374C59.5742 22.3894 59.6504 22.4655 59.8788 22.4655Z" fill="#3F3F3F"/>
<path d="M72.5974 26.04C72.5974 26.04 68.1802 26.04 61.7067 26.04C61.6305 26.04 61.5543 26.04 61.4782 26.04C56.6802 26.4202 51.806 25.8119 46.8557 26.04C46.7795 26.04 46.7034 26.04 46.551 26.04C43.7332 26.04 40.9153 26.04 38.0974 26.04C38.0212 26.04 37.9451 26.04 37.8689 26.04C32.6901 26.116 27.816 26.116 22.7133 26.1921C22.561 26.1921 22.4848 26.1921 22.3325 26.1921C18.9054 26.116 15.4782 25.8879 12.0511 26.04C11.9749 26.04 11.8987 26.04 11.7464 26.04C9.84246 26.04 8.70007 26.04 8.70007 26.04V26.8764C8.70007 26.8764 9.99477 26.8764 12.2795 26.8764C12.3557 26.8764 12.508 26.8764 12.5842 26.8764C15.859 26.8004 19.1338 26.8004 22.4848 26.8004C22.6372 26.8004 22.7133 26.8004 22.8656 26.8004C27.9683 26.8004 32.8424 26.8004 38.0212 26.8764C38.0974 26.8764 38.1736 26.8764 38.2497 26.8764C41.0676 26.8764 43.8855 26.8764 46.6272 26.8764C46.7034 26.8764 46.7795 26.8764 46.9318 26.8764C51.6537 26.4962 56.8325 27.1046 61.6305 26.8764C61.7067 26.8764 61.7828 26.8764 61.859 26.8764C68.1802 26.8764 72.4451 26.8764 72.4451 26.8764V26.04H72.5974Z" fill="#3F3F3F"/>
<path d="M34.137 7.33368C34.137 7.33368 34.137 7.18164 34.137 6.95357C34.137 6.80152 34.137 6.57345 34.137 6.57345C34.137 6.57345 34.2893 6.57345 34.5177 6.57345C34.5939 6.57345 34.7462 6.57345 34.8223 6.57345C35.203 6.26936 35.5076 6.95357 35.6599 6.4214C35.6599 6.34538 35.6599 6.34538 35.6599 6.34538H35.5837H33.9848C33.9086 6.34538 33.9086 6.34538 33.9086 6.34538V6.4214L33.8325 7.40971C33.8325 7.48573 33.8325 7.48573 33.9086 7.56175C33.9086 7.56175 33.9848 7.63778 34.0609 7.63778C34.67 7.63778 35.3553 7.63778 35.6599 8.32199C35.5837 7.63778 34.9746 7.33368 34.137 7.33368Z" fill="#3F3F3F"/>
<path d="M33.9087 8.93062C33.9848 8.93062 34.061 8.93062 34.1371 9.00664C34.2133 9.00664 34.3655 9.00664 34.4417 9.00664C34.8985 9.31073 35.2792 8.70255 35.5838 8.39845C34.8985 8.39845 34.594 9.08267 33.8325 8.70255C33.8325 8.70255 33.8325 8.70255 33.7564 8.70255L33.6803 8.85459C33.6803 8.85459 33.6803 8.85459 33.6803 8.93062C33.6803 8.93062 33.6803 8.93062 33.6803 9.00664C33.7564 8.85459 33.8325 8.85459 33.9087 8.93062Z" fill="#3F3F3F"/>
<path d="M39.1636 8.93078H39.316C39.3921 8.93078 39.3921 8.93078 39.3921 8.93078V8.85474V7.79016C39.3921 7.79016 39.4683 7.79016 39.5444 7.79016C39.6206 7.79016 39.6968 7.79016 39.7729 7.79016C39.8491 7.63808 39.9252 7.56204 39.9252 7.56204C39.8491 7.56204 39.7729 7.56204 39.6968 7.486C39.6206 7.486 39.5444 7.486 39.4683 7.486C39.3921 7.486 39.316 7.486 39.316 7.486V6.64955C39.316 6.64955 40.0014 6.64955 40.3822 6.64955C40.6107 6.64955 40.763 6.64955 40.763 6.64955C40.8391 6.64955 40.8391 6.64955 40.8391 6.64955V6.5735V6.42142C40.9915 6.42142 40.9915 6.34538 40.9915 6.34538H40.9153H39.1636C39.0875 6.34538 39.0113 6.42142 39.0113 6.49746V8.85474C39.0113 8.93078 39.0875 8.93078 39.1636 8.93078Z" fill="#3F3F3F"/>
<path d="M40.7653 7.63826C40.536 7.63826 40.3068 7.63826 40.0775 7.56196C40.3832 7.79086 40.536 8.32498 40.7653 7.63826Z" fill="#3F3F3F"/>
<path d="M41.8293 8.70241C42.0578 8.24621 42.4386 9.23464 42.8955 8.93051C42.9716 8.93051 43.0478 8.93051 43.1239 8.93051C43.5047 8.93051 43.7331 8.93051 43.7331 8.93051C43.8093 8.93051 43.8093 8.93051 43.8093 8.93051V8.85447V8.77844C43.8093 8.70241 43.8093 8.70241 43.8093 8.70241H43.7331C43.7331 8.70241 43.5808 8.70241 43.3524 8.70241C43.2762 8.70241 43.1239 8.70241 42.9716 8.70241C42.7432 8.62637 41.7532 9.00654 42.0578 8.01811C42.3624 8.32224 42.7432 7.33381 42.8955 7.86604C42.9716 7.86604 43.0478 7.86604 43.1239 7.86604C43.2001 7.86604 43.2762 7.86604 43.2762 7.86604C43.3524 7.86604 43.3524 7.86604 43.3524 7.86604V7.79001V7.63794C43.3524 7.56191 43.3524 7.56191 43.3524 7.56191H43.2762C43.2762 7.56191 43.1239 7.56191 42.8955 7.56191C42.8193 7.56191 42.7432 7.56191 42.667 7.56191C41.677 8.01811 41.9816 7.02968 42.134 6.80158C42.134 6.72555 42.134 6.64951 42.134 6.64951H43.5808C43.657 6.64951 43.657 6.64951 43.657 6.64951V6.57348V6.42141C43.657 6.34538 43.657 6.34538 43.657 6.34538H43.5808H41.8293C41.7532 6.34538 41.677 6.42141 41.677 6.49745C41.677 6.49745 41.677 6.49745 41.677 6.57348C41.6009 7.33381 41.6009 8.01811 41.4486 8.62637C41.677 8.62637 41.7532 8.70241 41.8293 8.70241Z" fill="#3F3F3F"/>
<path d="M44.8755 8.93078H46.0941C46.3225 8.93078 46.4749 8.93078 46.551 8.85474C46.7033 8.7787 46.7795 8.70266 46.8557 8.55057C46.9318 8.47453 46.9318 8.32245 46.9318 8.17037C46.9318 7.8662 46.7795 7.63808 46.4749 7.56204C46.6272 7.486 46.7033 7.40996 46.7795 7.33392C46.8557 7.25788 46.8557 7.10579 46.8557 7.02975C46.8557 6.80163 46.7795 6.64955 46.6272 6.49746C46.551 6.42142 46.3225 6.34538 46.0941 6.34538H44.9517C44.7994 6.34538 44.7994 6.34538 44.7994 6.42142V8.7787C44.7994 8.93078 44.7994 8.93078 44.8755 8.93078ZM45.1802 6.64955H46.0941C46.2464 6.64955 46.3987 6.64955 46.4749 6.72559C46.551 6.80163 46.6272 6.87767 46.6272 7.02975C46.6272 7.18183 46.551 7.25788 46.4749 7.33392C46.3987 7.40996 46.2464 7.40996 46.0941 7.40996H45.1802V6.64955ZM45.1802 7.71412H46.0941C46.2464 7.71412 46.3987 7.79016 46.551 7.8662C46.6272 7.94225 46.7033 8.09433 46.7033 8.24641C46.7033 8.39849 46.6272 8.47453 46.551 8.55057C46.4749 8.62662 46.3225 8.70266 46.1702 8.70266H45.2563V7.71412H45.1802Z" fill="#3F3F3F"/>
<path d="M33.1471 12.2003C33.2233 12.2763 33.2994 12.2763 33.3756 12.3524C33.604 12.8846 34.594 12.5805 34.8986 12.5805C35.2032 12.2763 35.2032 11.592 35.2032 11.0598C35.2032 10.9838 35.2032 10.8317 35.2032 10.7557C35.1271 10.4515 35.0509 10.2234 34.8986 10.0714C34.6701 9.84326 34.3655 9.69119 33.9086 9.69119C33.4517 9.69119 33.1471 9.84326 32.9187 10.0714C32.6902 10.2995 32.6141 10.6796 32.6141 11.0598C32.6141 11.516 32.6902 11.8201 32.9187 12.0482C32.9948 12.0482 33.071 12.1243 33.1471 12.2003ZM34.8986 10.7557C34.8986 10.8317 34.8986 10.9077 34.8986 10.9838C34.9747 11.2119 35.2794 11.8201 34.7463 12.1243C34.6701 12.2003 34.6701 12.2763 34.594 12.2763C34.3655 12.2003 33.6802 12.5044 33.4517 11.9722C33.4517 11.9722 33.5279 11.8962 33.6802 11.6681C34.0609 11.2119 34.7463 10.2234 34.7463 10.2234C34.8224 10.3755 34.8986 10.5276 34.8986 10.7557ZM33.2233 10.1474C33.3756 9.99533 33.604 9.84326 33.9848 9.84326C34.2132 9.84326 34.3655 9.91929 34.5178 9.99533L33.2233 11.6681C33.071 11.516 32.9948 11.2119 32.9948 10.9077C32.9948 10.6036 33.071 10.3755 33.2233 10.1474Z" fill="#3F3F3F"/>
<path d="M36.2697 9.99527H37.7929L36.4982 12.2765C36.4982 12.2765 36.4982 12.2765 36.4982 12.3525C36.4982 12.3525 36.4982 12.3525 36.5743 12.3525H36.879H36.9551L38.1737 10.2234C38.1737 10.2234 38.1737 10.1473 38.2498 10.1473C38.2498 10.0713 38.326 10.0713 38.326 9.99527C38.326 9.91923 38.326 9.91923 38.326 9.91923C38.326 9.84318 38.326 9.84319 38.326 9.84319H38.2498H36.3459C36.2697 9.84319 36.2697 9.84319 36.2697 9.84319V9.91923V9.99527C36.2697 10.0713 36.2697 10.0713 36.2697 10.0713C36.1935 9.99527 36.1935 9.99527 36.2697 9.99527Z" fill="#3F3F3F"/>
<path d="M39.1638 11.0599C39.0877 11.0599 39.0877 11.0599 39.0877 11.1359V11.2879C39.0877 11.364 39.0877 11.364 39.1638 11.364H40.5344C40.6105 11.364 40.6105 11.364 40.6105 11.2879V11.1359C40.6105 11.0599 40.6105 11.0599 40.5344 11.0599H39.1638Z" fill="#3F3F3F"/>
<path d="M41.6009 12.2763H41.8293H41.9055C41.9055 12.2763 41.9055 12.2763 41.9055 12.2003L42.2101 11.592H43.5047L43.8093 12.2003V12.2763C43.8093 12.2763 43.8093 12.2763 43.8854 12.2763H44.1139C44.19 12.2763 44.19 12.2763 44.19 12.2003C44.19 12.2003 44.19 12.2003 44.19 12.1242L43.0478 9.69117C43.0478 9.69117 43.0478 9.61514 42.9716 9.61514C42.9716 9.61514 42.9716 9.61514 42.8955 9.61514H42.7432H42.667C42.667 9.61514 42.667 9.61514 42.5909 9.69117L41.4486 12.1242C41.5247 12.2763 41.5247 12.2763 41.6009 12.2763C41.5247 12.2763 41.6009 12.2763 41.6009 12.2763ZM42.8193 10.1474L43.3524 11.3639H42.2863L42.8193 10.1474Z" fill="#3F3F3F"/>
<path d="M46.8555 10.8317C46.3225 10.9077 46.9317 12.2003 46.3225 11.8962C46.0179 11.592 46.0179 10.9077 45.8656 10.6036C45.8656 10.5276 45.7894 10.4515 45.7894 10.3755C45.6371 9.99533 45.4848 9.76723 45.4848 9.76723C45.4848 9.76723 45.4848 9.69119 45.4087 9.69119H45.3325H45.1802C45.1041 9.69119 45.0279 9.76723 45.0279 9.84326C45.0279 9.84326 45.0279 9.99533 45.0279 10.2234C45.0279 10.2995 45.0279 10.4515 45.0279 10.6036C45.0279 11.2879 45.0279 11.592 45.1041 12.2763C45.1041 12.3524 45.1041 12.3524 45.1802 12.3524C45.3325 11.8962 45.3325 11.2879 45.3325 10.9077C45.3325 10.7557 45.3325 10.6036 45.3325 10.5276C45.3325 10.4515 45.3325 10.3755 45.3325 10.3755C45.3325 10.3755 45.3325 10.4515 45.4087 10.5276C45.4848 10.6036 45.4848 10.7557 45.561 10.9077C45.9417 11.592 45.9417 12.2763 46.5509 12.2763C46.8555 11.9722 46.8555 11.2879 47.084 10.9838C47.1601 10.8317 47.2363 10.6796 47.2363 10.6036C47.3124 10.5276 47.3124 10.4515 47.3124 10.4515C47.3124 10.4515 47.3124 10.5276 47.3124 10.6036C47.3124 10.7557 47.3124 10.9077 47.3124 10.9838C47.2363 11.2879 47.2363 11.9722 47.2363 12.2763C48.2263 11.9722 47.2363 11.2879 47.6932 11.1358C47.6932 10.9838 47.6932 10.8317 47.6932 10.6796C47.6932 10.2234 47.6932 9.91929 47.6932 9.91929C47.6932 9.84326 47.6932 9.84326 47.6932 9.84326H47.6171H47.4647H47.3886C47.3886 9.84326 47.3886 9.84326 47.3124 9.91929C47.3124 9.91929 47.1601 10.2995 46.9317 10.7557C46.9317 10.6796 46.9317 10.7557 46.8555 10.8317Z" fill="#3F3F3F"/>
</g>
<defs>
<clipPath id="clip0_91_4446">
<rect width="80.1191" height="40.2258" fill="white" transform="translate(0.627533 0.262054)"/>
</clipPath>
</defs>
</svg>
