<svg width="24" height="24" viewBox="0 0 24 24" fill="none" xmlns="http://www.w3.org/2000/svg">
<path d="M15 4.65803C14.7508 4.53346 14.4718 4.48077 14.1943 4.50585C13.9169 4.53093 13.6518 4.63279 13.429 4.80003L6.828 9.00003H3.828C3.43018 9.00003 3.04865 9.15806 2.76734 9.43937C2.48604 9.72067 2.328 10.1022 2.328 10.5V13.5C2.328 13.8979 2.48604 14.2794 2.76734 14.5607C3.04865 14.842 3.43018 15 3.828 15H6.828L13.428 19.2C13.6509 19.3672 13.9159 19.4689 14.1933 19.494C14.4707 19.519 14.7497 19.4662 14.9988 19.3417C15.248 19.2171 15.4575 19.0256 15.604 18.7886C15.7504 18.5517 15.828 18.2786 15.828 18V6.00003C15.8282 5.72152 15.7508 5.44847 15.6046 5.21144C15.4583 4.97442 15.249 4.7828 15 4.65803V4.65803Z" stroke="white" stroke-width="1.5" stroke-linecap="round" stroke-linejoin="round"/>
<path d="M20.328 15C20.7467 14.6717 21.0853 14.2525 21.3182 13.7741C21.551 13.2957 21.672 12.7706 21.672 12.2385C21.672 11.7064 21.551 11.1813 21.3182 10.7029C21.0853 10.2245 20.7467 9.80527 20.328 9.47699" stroke="white" stroke-width="1.5" stroke-linecap="round" stroke-linejoin="round"/>
<path d="M6.828 9V15" stroke="white" stroke-width="1.5" stroke-linecap="round" stroke-linejoin="round"/>
</svg>
